# xmcd
#
# Track frame offsets: 
#        150
#        15830
#        30276
#        44831
#        61319
#        81015
#        98828
#        115402
#        130311
#        146488
#        164858
#        189547
#
# Disc length: 2878 seconds
#
# Revision: 2
# Processed by: cddbd v1.5.2PL0 Copyright (c) Steve Scherf et al.
# Submitted via: ExactAudioCopy v1.0b3
#
DISCID=a00b3c0c
DTITLE=Boy - Mutual Friends
DYEAR=2011
DGENRE=Blues
TTITLE0=This Is The Beginning
TTITLE1=Waitress
TTITLE2=Army
TTITLE3=Little Numbers
TTITLE4=Drive Darling
TTITLE5=Railway
TTITLE6=Waltz For Pony
TTITLE7=Boris
TTITLE8=Oh Boy
TTITLE9=Skin
TTITLE10=Silver Streets
TTITLE11=July
EXTD=
EXTT0=
EXTT1=
EXTT2=
EXTT3=
EXTT4=
EXTT5=
EXTT6=
EXTT7=
EXTT8=
EXTT9=
EXTT10=
EXTT11=
PLAYORDER=
